# Blender v3.2.2 OBJ File: ''
# www.blender.org
mtllib item1.mtl
o Cube
v 0.173220 0.102423 -0.400000
v 0.173235 0.300498 -0.136576
v 0.507368 0.102423 -0.136563
v 0.173220 -0.300000 -0.136563
v 0.173220 -0.102423 -0.400000
v 0.507368 -0.102423 -0.136563
v 0.507368 0.102423 0.136563
v 0.173220 0.300000 0.136563
v 0.173220 0.102423 0.400000
v 0.507368 -0.102423 0.136563
v 0.173220 -0.102423 0.400000
v 0.173220 -0.300000 0.136563
v -0.173220 0.102423 -0.400000
v -0.507368 0.102423 -0.136563
v -0.175222 0.301263 -0.139356
v -0.507368 -0.102423 -0.136563
v -0.173220 -0.102423 -0.400000
v -0.173220 -0.300000 -0.136563
v -0.507368 0.102423 0.136563
v -0.173220 0.102423 0.400000
v -0.173220 0.300000 0.136563
v -0.173220 -0.300000 0.136563
v -0.173220 -0.102423 0.400000
v -0.507368 -0.102423 0.136563
v 0.035401 0.129947 -0.153310
v 0.070410 0.497511 -0.397238
v 0.067367 0.436005 -0.369613
v 0.173158 0.386150 0.136642
v -0.173282 0.386150 0.136642
v 0.173173 0.386648 -0.136497
v -0.174422 0.398256 -0.119646
v -0.506928 -0.102423 0.136563
v -0.506928 -0.102423 -0.136563
v -0.506928 0.102423 0.136563
v -0.506928 0.102423 -0.136563
vt 0.207324 0.582324
vt 0.292676 0.582324
vt 0.292676 0.667676
vt 0.207324 0.667676
vt 0.542676 0.167676
vt 0.457324 0.167676
vt 0.457324 0.167676
vt 0.542676 0.167676
vt 0.457324 0.832324
vt 0.542676 0.832324
vt 0.542676 0.917676
vt 0.457324 0.917676
vt 0.625000 0.417676
vt 0.625000 0.332324
vt 0.625000 0.332324
vt 0.625000 0.417676
vt 0.457324 0.582324
vt 0.542676 0.582324
vt 0.542676 0.667676
vt 0.457324 0.667676
vt 0.542676 0.417676
vt 0.542676 0.500000
vt 0.292676 0.500000
vt 0.375000 0.582324
vt 0.542676 0.750000
vt 0.625000 0.832324
vt 0.375000 0.667676
vt 0.292676 0.750000
vt 0.542676 0.250000
vt 0.625000 0.167676
vt 0.125000 0.582324
vt 0.207324 0.500000
vt 0.542676 0.082324
vt 0.542676 0.000000
vt 0.625000 0.082324
vt 0.207324 0.750000
vt 0.125000 0.667676
vt 0.457324 0.417676
vt 0.457324 0.000000
vt 0.457324 0.082324
vt 0.542676 0.332324
vt 0.457324 0.332324
vt 0.625000 0.917676
vt 0.707324 0.582324
vt 0.707324 0.667676
vt 0.707324 0.582324
vt 0.792676 0.582324
vt 0.792676 0.667676
vt 0.707324 0.667676
vt 0.625000 0.082324
vt 0.625000 0.167676
vt 0.625000 0.832324
vt 0.625000 0.917676
vt 0.457324 0.082324
vt 0.542676 0.082324
vt 0.125000 0.667676
vt 0.125000 0.582324
vn 0.0000 -1.0000 0.0000
vn 0.0000 0.0000 1.0000
vn -0.0182 0.1075 -0.9940
vn 1.0000 0.0000 0.0000
vn 0.4282 0.7223 -0.5431
vn 0.4276 -0.7232 -0.5424
vn 0.4276 0.7232 0.5424
vn 0.4276 -0.7232 0.5424
vn -0.4327 0.7152 -0.5489
vn -0.4276 -0.7232 -0.5424
vn -0.4276 0.7232 0.5424
vn -0.4276 -0.7232 0.5424
vn -0.5090 -0.8608 0.0000
vn 0.0000 -0.8000 -0.6000
vn 0.6191 0.0000 -0.7853
vn -0.6191 0.0000 0.7853
vn 0.6191 0.0000 0.7853
vn -0.6191 0.0000 -0.7853
vn 0.0000 0.8000 0.6000
vn 0.5095 0.8605 0.0008
vn 0.0000 -0.8000 0.6000
vn -0.5113 0.8594 0.0038
vn 0.0033 0.7972 -0.6037
vn 0.5090 -0.8608 0.0000
vn 0.0000 0.0000 -1.0000
vn 0.0173 0.9996 0.0238
vn -1.0000 0.0034 0.0060
vn 1.0000 0.0007 0.0001
vn 0.0000 -0.0009 1.0000
vn -1.0000 0.0000 0.0000
vn 0.0000 1.0000 0.0000
usemtl Material
s off
f 18/1/1 4/2/1 12/3/1 22/4/1
f 14/5/2 16/6/2 33/7/2 35/8/2
f 11/9/2 9/10/2 20/11/2 23/12/2
f 2/13/3 15/14/3 31/15/3 30/16/3
f 6/17/4 3/18/4 7/19/4 10/20/4
f 1/21/5 2/13/5 3/22/5
f 4/2/6 5/23/6 6/24/6
f 7/25/7 8/26/7 9/10/7
f 10/27/8 11/28/8 12/3/8
f 13/29/9 14/5/9 15/30/9
f 16/31/10 17/32/10 18/1/10
f 19/33/11 20/34/11 21/35/11
f 22/4/12 23/36/12 24/37/12
f 18/1/13 22/4/13 24/37/13 16/31/13
f 4/2/14 18/1/14 17/32/14 5/23/14
f 3/18/15 6/17/15 5/38/15 1/21/15
f 23/39/16 20/34/16 19/33/16 24/40/16
f 9/10/17 11/9/17 10/20/17 7/19/17
f 13/41/18 17/42/18 16/6/18 14/5/18
f 8/26/19 21/43/19 20/11/19 9/10/19
f 2/44/20 8/45/20 7/19/20 3/18/20
f 22/4/21 12/3/21 11/28/21 23/36/21
f 21/35/22 15/30/22 14/5/22 19/33/22
f 15/14/23 2/13/23 1/21/23 13/41/23
f 12/3/24 4/2/24 6/17/24 10/20/24
f 17/42/25 13/41/25 1/21/25 5/38/25
f 30/46/26 31/47/26 29/48/26 28/49/26
f 15/30/27 21/35/27 29/50/27 31/51/27
f 8/45/28 2/44/28 30/46/28 28/49/28
f 21/43/29 8/26/29 28/52/29 29/53/29
f 32/54/30 34/55/30 35/8/30 33/7/30
f 24/40/25 19/33/25 34/55/25 32/54/25
f 16/31/31 24/37/31 32/56/31 33/57/31
f 19/33/1 14/5/1 35/8/1 34/55/1
l 2 25
l 25 26
l 26 27
